<svg id="visual" viewBox="0 0 900 600" width="900" height="600" xmlns="http://www.w3.org/2000/svg" xmlns:xlink="http://www.w3.org/1999/xlink" version="1.1"><rect width="900" height="600" fill="#8b6aff"></rect><g><g transform="translate(864 569)"><path d="M0 -34.7L30 -17.3L30 17.3L0 34.7L-30 17.3L-30 -17.3Z" fill="none" stroke="#9f85ff" stroke-width="2"></path></g><g transform="translate(91 246)"><path d="M0 -25L21.7 -12.5L21.7 12.5L0 25L-21.7 12.5L-21.7 -12.5Z" fill="none" stroke="#9f85ff" stroke-width="2"></path></g><g transform="translate(118 420)"><path d="M0 -8L6.9 -4L6.9 4L0 8L-6.9 4L-6.9 -4Z" fill="none" stroke="#9f85ff" stroke-width="2"></path></g><g transform="translate(541 261)"><path d="M0 -12L10.4 -6L10.4 6L0 12L-10.4 6L-10.4 -6Z" stroke="#9f85ff" fill="none" stroke-width="2"></path></g><g transform="translate(230 528)"><path d="M0 -30L26 -15L26 15L0 30L-26 15L-26 -15Z" stroke="#9f85ff" fill="none" stroke-width="2"></path></g><g transform="translate(814 378)"><path d="M0 -12L10.4 -6L10.4 6L0 12L-10.4 6L-10.4 -6Z" stroke="#9f85ff" fill="none" stroke-width="2"></path></g><g transform="translate(600 88)"><path d="M0 -18L15.6 -9L15.6 9L0 18L-15.6 9L-15.6 -9Z" stroke="#9f85ff" fill="none" stroke-width="2"></path></g><g transform="translate(745 312)"><path d="M0 -28L24.2 -14L24.2 14L0 28L-24.2 14L-24.2 -14Z" stroke="#9f85ff" fill="none" stroke-width="2"></path></g><g transform="translate(145 29)"><path d="M0 -14L12.1 -7L12.1 7L0 14L-12.1 7L-12.1 -7Z" stroke="#9f85ff" fill="none" stroke-width="2"></path></g><g transform="translate(868 155)"><path d="M0 -22L19.1 -11L19.1 11L0 22L-19.1 11L-19.1 -11Z" stroke="#9f85ff" fill="none" stroke-width="2"></path></g><g transform="translate(436 137)"><path d="M0 -15L13 -7.5L13 7.5L0 15L-13 7.5L-13 -7.5Z" stroke="#9f85ff" fill="none" stroke-width="2"></path></g><g transform="translate(792 570)"><path d="M0 -31L26.8 -15.5L26.8 15.5L0 31L-26.8 15.5L-26.8 -15.5Z" stroke="#9f85ff" fill="none" stroke-width="2"></path></g><g transform="translate(365 447)"><path d="M0 -9L7.8 -4.5L7.8 4.5L0 9L-7.8 4.5L-7.8 -4.5Z" stroke="#9f85ff" fill="none" stroke-width="2"></path></g><g transform="translate(326 334)"><path d="M0 -21L18.2 -10.5L18.2 10.5L0 21L-18.2 10.5L-18.2 -10.5Z" stroke="#9f85ff" fill="none" stroke-width="2"></path></g><g transform="translate(27 287)"><path d="M0 -20L17.3 -10L17.3 10L0 20L-17.3 10L-17.3 -10Z" stroke="#9f85ff" fill="none" stroke-width="2"></path></g><g transform="translate(277 275)"><path d="M0 -11L9.5 -5.5L9.5 5.5L0 11L-9.5 5.5L-9.5 -5.5Z" stroke="#9f85ff" fill="none" stroke-width="2"></path></g><g transform="translate(704 455)"><path d="M0 -24L20.8 -12L20.8 12L0 24L-20.8 12L-20.8 -12Z" stroke="#9f85ff" fill="none" stroke-width="2"></path></g><g transform="translate(460 531)"><path d="M0 -33L28.6 -16.5L28.6 16.5L0 33L-28.6 16.5L-28.6 -16.5Z" stroke="#9f85ff" fill="none" stroke-width="2"></path></g><g transform="translate(826 30)"><path d="M0 -30L26 -15L26 15L0 30L-26 15L-26 -15Z" stroke="#9f85ff" fill="none" stroke-width="2"></path></g><g transform="translate(754 35)"><path d="M0 -8L6.9 -4L6.9 4L0 8L-6.9 4L-6.9 -4Z" stroke="#9f85ff" fill="none" stroke-width="2"></path></g><g transform="translate(65 175)"><path d="M0 -12L10.4 -6L10.4 6L0 12L-10.4 6L-10.4 -6Z" stroke="#9f85ff" fill="none" stroke-width="2"></path></g><g transform="translate(222 83)"><path d="M0 -11L9.5 -5.5L9.5 5.5L0 11L-9.5 5.5L-9.5 -5.5Z" stroke="#9f85ff" fill="none" stroke-width="2"></path></g><g transform="translate(53 530)"><path d="M0 -27L23.4 -13.5L23.4 13.5L0 27L-23.4 13.5L-23.4 -13.5Z" stroke="#9f85ff" fill="none" stroke-width="2"></path></g><g transform="translate(112 571)"><path d="M0 -25L21.7 -12.5L21.7 12.5L0 25L-21.7 12.5L-21.7 -12.5Z" stroke="#9f85ff" fill="none" stroke-width="2"></path></g><g transform="translate(773 157)"><path d="M0 -24L20.8 -12L20.8 12L0 24L-20.8 12L-20.8 -12Z" stroke="#9f85ff" fill="none" stroke-width="2"></path></g><g transform="translate(892 221)"><path d="M0 -18L15.6 -9L15.6 9L0 18L-15.6 9L-15.6 -9Z" stroke="#9f85ff" fill="none" stroke-width="2"></path></g><g transform="translate(606 188)"><path d="M0 -19L16.5 -9.5L16.5 9.5L0 19L-16.5 9.5L-16.5 -9.5Z" stroke="#9f85ff" fill="none" stroke-width="2"></path></g><g transform="translate(597 404)"><path d="M0 -26L22.5 -13L22.5 13L0 26L-22.5 13L-22.5 -13Z" stroke="#9f85ff" fill="none" stroke-width="2"></path></g><g transform="translate(434 35)"><path d="M0 -33L28.6 -16.5L28.6 16.5L0 33L-28.6 16.5L-28.6 -16.5Z" stroke="#9f85ff" fill="none" stroke-width="2"></path></g><g transform="translate(630 598)"><path d="M0 -14L12.1 -7L12.1 7L0 14L-12.1 7L-12.1 -7Z" stroke="#9f85ff" fill="none" stroke-width="2"></path></g><g transform="translate(263 12)"><path d="M0 -25L21.7 -12.5L21.7 12.5L0 25L-21.7 12.5L-21.7 -12.5Z" stroke="#9f85ff" fill="none" stroke-width="2"></path></g><g transform="translate(73 360)"><path d="M0 -9L7.8 -4.5L7.8 4.5L0 9L-7.8 4.5L-7.8 -4.5Z" stroke="#9f85ff" fill="none" stroke-width="2"></path></g><g transform="translate(136 496)"><path d="M0 -33L28.6 -16.5L28.6 16.5L0 33L-28.6 16.5L-28.6 -16.5Z" stroke="#9f85ff" fill="none" stroke-width="2"></path></g><g transform="translate(528 120)"><path d="M0 -14L12.1 -7L12.1 7L0 14L-12.1 7L-12.1 -7Z" stroke="#9f85ff" fill="none" stroke-width="2"></path></g></g></svg>