<svg id="visual" viewBox="0 0 900 600" width="900" height="600" xmlns="http://www.w3.org/2000/svg" xmlns:xlink="http://www.w3.org/1999/xlink" version="1.1"><g><g transform="translate(221 210)"><path d="M0 -48.6L34.3 -34.3L48.6 0L34.3 34.3L0 48.6L-34.3 34.3L-48.6 0L-34.3 -34.3Z" fill="none" stroke="#201f24" stroke-width="2"></path></g><g transform="translate(577 471)"><path d="M0 -41L29 -29L41 0L29 29L0 41L-29 29L-41 0L-29 -29Z" fill="none" stroke="#201f24" stroke-width="2"></path></g><g transform="translate(400 383)"><path d="M0 -15L10.6 -10.6L15 0L10.6 10.6L0 15L-10.6 10.6L-15 0L-10.6 -10.6Z" fill="none" stroke="#201f24" stroke-width="2"></path></g><g transform="translate(832 351)"><path d="M0 -30L21.2 -21.2L30 0L21.2 21.2L0 30L-21.2 21.2L-30 0L-21.2 -21.2Z" stroke="#201f24" fill="none" stroke-width="2"></path></g><g transform="translate(684 493)"><path d="M0 -33L23.3 -23.3L33 0L23.3 23.3L0 33L-23.3 23.3L-33 0L-23.3 -23.3Z" stroke="#201f24" fill="none" stroke-width="2"></path></g><g transform="translate(504 84)"><path d="M0 -14L9.9 -9.9L14 0L9.9 9.9L0 14L-9.9 9.9L-14 0L-9.9 -9.9Z" stroke="#201f24" fill="none" stroke-width="2"></path></g><g transform="translate(259 450)"><path d="M0 -16L11.3 -11.3L16 0L11.3 11.3L0 16L-11.3 11.3L-16 0L-11.3 -11.3Z" stroke="#201f24" fill="none" stroke-width="2"></path></g><g transform="translate(19 385)"><path d="M0 -25L17.7 -17.7L25 0L17.7 17.7L0 25L-17.7 17.7L-25 0L-17.7 -17.7Z" stroke="#201f24" fill="none" stroke-width="2"></path></g><g transform="translate(624 131)"><path d="M0 -29L20.5 -20.5L29 0L20.5 20.5L0 29L-20.5 20.5L-29 0L-20.5 -20.5Z" stroke="#201f24" fill="none" stroke-width="2"></path></g><g transform="translate(728 155)"><path d="M0 -33L23.3 -23.3L33 0L23.3 23.3L0 33L-23.3 23.3L-33 0L-23.3 -23.3Z" stroke="#201f24" fill="none" stroke-width="2"></path></g><g transform="translate(384 492)"><path d="M0 -47L33.2 -33.2L47 0L33.2 33.2L0 47L-33.2 33.2L-47 0L-33.2 -33.2Z" stroke="#201f24" fill="none" stroke-width="2"></path></g><g transform="translate(828 138)"><path d="M0 -43L30.4 -30.4L43 0L30.4 30.4L0 43L-30.4 30.4L-43 0L-30.4 -30.4Z" stroke="#201f24" fill="none" stroke-width="2"></path></g><g transform="translate(155 48)"><path d="M0 -34L24 -24L34 0L24 24L0 34L-24 24L-34 0L-24 -24Z" stroke="#201f24" fill="none" stroke-width="2"></path></g><g transform="translate(184 591)"><path d="M0 -33L23.3 -23.3L33 0L23.3 23.3L0 33L-23.3 23.3L-33 0L-23.3 -23.3Z" stroke="#201f24" fill="none" stroke-width="2"></path></g><g transform="translate(165 304)"><path d="M0 -31L21.9 -21.9L31 0L21.9 21.9L0 31L-21.9 21.9L-31 0L-21.9 -21.9Z" stroke="#201f24" fill="none" stroke-width="2"></path></g><g transform="translate(657 369)"><path d="M0 -30L21.2 -21.2L30 0L21.2 21.2L0 30L-21.2 21.2L-30 0L-21.2 -21.2Z" stroke="#201f24" fill="none" stroke-width="2"></path></g><g transform="translate(879 45)"><path d="M0 -38L26.9 -26.9L38 0L26.9 26.9L0 38L-26.9 26.9L-38 0L-26.9 -26.9Z" stroke="#201f24" fill="none" stroke-width="2"></path></g><g transform="translate(333 130)"><path d="M0 -44L31.1 -31.1L44 0L31.1 31.1L0 44L-31.1 31.1L-44 0L-31.1 -31.1Z" stroke="#201f24" fill="none" stroke-width="2"></path></g><g transform="translate(289 307)"><path d="M0 -12L8.5 -8.5L12 0L8.5 8.5L0 12L-8.5 8.5L-12 0L-8.5 -8.5Z" stroke="#201f24" fill="none" stroke-width="2"></path></g><g transform="translate(536 201)"><path d="M0 -34L24 -24L34 0L24 24L0 34L-24 24L-34 0L-24 -24Z" stroke="#201f24" fill="none" stroke-width="2"></path></g><g transform="translate(103 498)"><path d="M0 -33L23.3 -23.3L33 0L23.3 23.3L0 33L-23.3 23.3L-33 0L-23.3 -23.3Z" stroke="#201f24" fill="none" stroke-width="2"></path></g><g transform="translate(808 591)"><path d="M0 -23L16.3 -16.3L23 0L16.3 16.3L0 23L-16.3 16.3L-23 0L-16.3 -16.3Z" stroke="#201f24" fill="none" stroke-width="2"></path></g><g transform="translate(572 303)"><path d="M0 -42L29.7 -29.7L42 0L29.7 29.7L0 42L-29.7 29.7L-42 0L-29.7 -29.7Z" stroke="#201f24" fill="none" stroke-width="2"></path></g><g transform="translate(466 569)"><path d="M0 -46L32.5 -32.5L46 0L32.5 32.5L0 46L-32.5 32.5L-46 0L-32.5 -32.5Z" stroke="#201f24" fill="none" stroke-width="2"></path></g><g transform="translate(38 69)"><path d="M0 -32L22.6 -22.6L32 0L22.6 22.6L0 32L-22.6 22.6L-32 0L-22.6 -22.6Z" stroke="#201f24" fill="none" stroke-width="2"></path></g></g></svg>